<?xml version="1.0" encoding="utf-8"?>
<!-- Generator: Adobe Illustrator 27.0.0, SVG Export Plug-In . SVG Version: 6.00 Build 0)  -->
<svg version="1.1" id="Layer_1" xmlns="http://www.w3.org/2000/svg" xmlns:xlink="http://www.w3.org/1999/xlink" x="0px" y="0px"
	 viewBox="0 0 121.2 114" style="enable-background:new 0 0 121.2 114;" xml:space="preserve">
<style type="text/css">
	.st0{fill:#FFC765;}
	.st1{fill:#E8E7E3;}
	.st2{fill:#141413;}
	.st3{fill:#FFFFFF;}
	.st4{fill:#FF93AE;}
	.st5{fill:#FFB700;}
	.st6{fill:#F95900;}
	.st7{opacity:0.4;fill:#995400;enable-background:new    ;}
	.st8{fill:#2B0000;}
	.st9{fill:#650000;}
	.st10{fill:#FFFEEE;}
	.st11{fill:#CA0000;}
	.st12{fill:#FF9A2C;}
	.st13{fill:#FFED85;}
</style>
<g>
	<g id="Layer_2_00000150101761782614270490000009691489762745086900_">
		<g id="ducks">
			<g>
				<path class="st0" d="M120.5,34.8c-0.8-1.2-1.8-0.7-2.7,0.3c0.1-0.3,0.2-0.6,0.3-0.9c0.4-1.6,1-3.5,0.5-5.1c-0.5-1.5-2.1-1-3-0.5
					c-1.6,0.8-3,2.1-4.3,3.5c0-1.2-1-1.9-2.3-1.7c-0.9,0.1-1.7,0.8-2.5,1.2c-1.6,1-3.1,2.1-4.6,3.1c-3.3,2.2-6.8,4-10.4,5.5
					c-3.5,1.5-7.2,2.4-11,2.5c-3.3,0-6.7-0.6-10-1.2c-3.1-0.6-6.1-1.5-9-2.8c-2.8-1.2-5.1-3-7.6-4.8c0.5-2.9,0.9-5.8,0.7-8.8
					c-0.2-4-2-7.5-4.5-10.4c-4.3-5.1-11.3-8.7-17.8-7.4c-0.2-0.5-0.4-1-0.5-1.6c-0.1-1.2,0.2-2.2,1-3.2c0.1-0.1,0-0.3-0.2-0.3
					c-0.2,0.1-0.4,0.2-0.5,0.3c-1.2,0.4-2.4,1.8-2.8,3.3c-0.2-0.5-0.4-1.1-0.4-1.7c-0.1-1.5,0.2-2.9,1.3-3.9c0.1-0.1,0-0.3-0.1-0.2
					c0,0,0,0,0,0C30,0,30,0,29.9,0c-3.4-0.3-5.4,3.7-5.2,7.2c-1.1-1.3-1.5-3-1.2-5.1c0-0.1,0.1-0.2,0.1-0.3c0-0.1,0-0.1,0-0.2
					c0,0,0-0.1,0-0.2c0-0.1-0.1-0.2-0.2-0.1c0,0-0.1,0.1-0.1,0.1c-0.1,0-0.1,0-0.1,0.1c-1.8,1.9-2.3,4.3-1.7,6.8
					c0.2,0.7,0.5,1.4,1,2c-2.5,1.5-4.5,3.8-6.1,6.6c-2.1,3.9-3.5,9.7-1.5,13.8c0.7,6.4,4.9,12.4,10.3,15.4c2.8,1.6,6.1,2.3,9.3,2.2
					c-0.9,5.5-1,11.2,0.2,16.7c1.3,6.1,4.4,11.7,8.3,16.4c10.9,13.1,30.4,14.9,45.6,10.9c9.9-2.6,17.9-8.9,23.3-17.8
					c5.7-9.3,8.1-20.1,8.7-31C120.7,41,122,37.2,120.5,34.8L120.5,34.8z"/>
				<path class="st0" d="M22.4,10.4c-0.3,0.2-0.5,0.4-0.8,0.5c0.7-0.3,1.4-0.6,2.2-0.8c-1.4-2.6-2.4-5.6-1-8.1
					c-1.4,1.8-1.9,4-1.3,6.3C21.6,9,22,9.7,22.4,10.4z"/>
				<path class="st0" d="M25.9,9.9c0.5-0.4,1-0.7,1.6-0.9c-1.4-3.3-0.9-6.5,1.4-8.9c-2.4,0.5-3.8,3.1-4.1,5.8
					C24.8,7.3,25.2,8.7,25.9,9.9z"/>
				<path class="st0" d="M120.5,34.8c-0.8-1.2-1.8-0.7-2.7,0.3c0.1-0.3,0.2-0.6,0.3-0.9c0.4-1.6,1-3.5,0.5-5.1c-0.5-1.5-2.1-1-3-0.5
					c-1.6,0.8-3,2.1-4.3,3.5c0-1.1-0.9-1.8-2.1-1.7c0.1,0.2,0.1,0.5,0.1,0.9c-0.1,1.1-1,2.3-1.7,3.1c-0.8,1-1.6,2-2.5,2.9
					c3-1.5,5.7-3.5,8.1-6c0.6-0.6,2.7-3.1,3.8-2c1.4,1.4,0.3,4.4-0.4,5.9c-0.9,1.8-2,3.4-3.2,4.9c1.5-1,2.9-2,4.2-3.3
					c0.7-0.7,1.4-1.2,2.2-0.5c2,1.8,0.1,7.5-0.4,9.7c-1,4.9-2.1,9.9-4.1,14.6c-1,2.2-2.5,5.8-5,6.6c-0.2,0.1-0.5-0.1-0.5-0.4
					c0-0.8,0.2-1.6,0.2-2.4c0.1-1.1,0.2-2.7-1.2-1.7c-0.3,0.2-0.7-0.1-0.6-0.5c0.8-3.1,2.5-6.2,2.7-9.4c0.2-1.8,0.1-6.2-2.7-4.2
					c-0.3,0.2-0.6-0.2-0.6-0.5c0.3-1.8,1.5-5.6-1-6.1c-2.6-0.5-5.6,1-7.9,1.9c-3.4,1.3-7.2,3.6-10.9,3.3c-0.1,0.3-0.5,0.5-0.7,0.1
					c0-0.1-0.1-0.1-0.1-0.2c-0.1,0-0.1,0-0.2,0c-0.3-0.1-0.4-0.4-0.2-0.6c-1.7-2.3-5.8-2.8-8.3-3.1c-4.1-0.4-8.4-0.3-12.3,0.6
					c-4.6,1.1-8.8,3.6-12,7.3c-1.6,1.9-3,4-4,6.2c-1,2.3-1.2,4.5-1.7,6.9c-0.1,0.4-0.5,0.4-0.7,0.1c-2.2-3.1-3.2-7.3-3.2-11.3
					c-1.5,4.8-1.2,9.8,0.5,14.6c0.9,2.6,1.9,4.3,3.7,6.2c1,1.1,1.5,2.7,1.7,4.2c0,0.2-0.1,0.5-0.4,0.5c-4.2-0.1-7.8-5-9.5-8.6
					c-2-4.1-3.1-8.6-3.6-13.2c-0.2-2.1-0.4-4.4,0.3-6.5c0.6-1.6,1.5-2.5,2.8-3.5c3.5-2.7,7.2-5.6,8.6-9.9c-2.2,2.6-5.8,4.1-8.8,5
					c-1.4,0.4-3.5,1.5-5,1.1c-0.5-0.2-0.8-0.4-0.8-0.7c-0.3-0.5-0.4-1.2-0.2-2.1c0.2-1.3,0.8-2.7,0.8-4c-0.1-2.5-1.3-4.3-3.5-5.3
					c-0.1-0.1-1-0.1-0.9-0.3c1.6-2.4,2.7-4.6,2.8-7.3c0.2-3.7,0.1-6-1.8-7.9c-2.7-2.8-6.4-1.2-9,4c-0.2,0.3,0.1-1.5-0.1-3
					c-0.5-3.4-3.3-2-4.9-0.1c-0.1,0.3-0.3,0.5-0.5,0.8c-2.1,3.9-3.5,9.7-1.5,13.8c0.7,6.4,4.9,12.4,10.3,15.4
					c2.8,1.6,6.1,2.3,9.3,2.2c-0.9,5.5-1,11.2,0.2,16.7C36,71.3,39,76.8,43,81.6c10.9,13.1,30.4,14.9,45.6,10.9
					c9.9-2.6,17.9-8.9,23.3-17.8c5.7-9.3,8.1-20.1,8.7-31C120.7,41,122,37.2,120.5,34.8L120.5,34.8z"/>
				<path class="st1" d="M32,22c-0.1,4.7-3.4,8.5-6.5,7.9c-3.1-0.7-5.1-3.6-4.2-7.9c0.9-4.4,4.3-8.6,7.4-7.9
					C31.4,14.8,32.1,18,32,22L32,22z"/>
				<path class="st2" d="M30.4,24.1c-0.5,3-2.1,5.3-3.6,5c-1.5-0.3-2.4-3-1.8-6c0.5-3,2.1-5.3,3.6-5C30.1,18.4,30.9,21,30.4,24.1z"
					/>
				<path class="st3" d="M30.1,21.1c0.1,1-0.2,1.8-0.8,1.9c-0.5,0.1-1.1-0.7-1.1-1.7c-0.1-1,0.2-1.8,0.8-1.9
					C29.5,19.4,30,20.2,30.1,21.1L30.1,21.1z"/>
				<path class="st1" d="M20.7,22c-0.9,3.8-3.2,6.3-4.6,4.9c-1.5-1.3-2-4.1-0.8-7.5c1.2-3.4,3.7-6.1,5.1-4.7
					C21.6,15.9,21.4,18.7,20.7,22L20.7,22z"/>
				<path class="st2" d="M19.5,23.3c-0.8,2.4-2,3.9-2.7,3.3c-0.7-0.6-0.7-3,0.1-5.4c0.8-2.4,2-3.9,2.7-3.3
					C20.3,18.5,20.3,20.9,19.5,23.3z"/>
				<path class="st3" d="M19.9,20.9c-0.1,0.8-0.4,1.4-0.7,1.4c-0.3-0.1-0.4-0.8-0.3-1.6c0.1-0.8,0.5-1.5,0.7-1.4
					C19.8,19.3,20,20,19.9,20.9L19.9,20.9z"/>
				<path class="st4" d="M41.4,29.1c0.3,1.2-1.5,2.8-4.1,3.5s-5,0.5-5.3-0.6c-0.3-1.2,1.5-2.8,4.1-3.6
					C38.7,27.7,41.1,27.9,41.4,29.1z"/>
				<path class="st5" d="M108.4,51.1c-0.2-1.2-1-1.9-2.2-1.7c1.2-2.2,1.3-5.3-1.7-5.8c-2.8-0.4-5.7,1.1-8.4,1.9c-3,0.9-6,1.6-9,2.2
					c-7.5,1.3-14.9,1.7-22.5,0.9c5.5,1.1,11,1.7,16.6,1.4c4.2-0.2,8.3-1,12.4-2.1c2.8-0.7,8.5-3.9,11.2-2.6c0.9,0.5,0.8,2.1,0.4,2.9
					c-0.8,1.9-3.1,5.2-2.9,5c0.9-1,2.8-2.6,4.3-2.3c1.4,0.5,0,4.3-0.7,6c-0.8,2.3-2.1,4.1-3.5,6.2c-1.1,1.6-0.6,1,1,0.9
					c1.7-0.1,0.7,3-0.4,4.7c-6.2,9.7-19.7,11.5-29.5,11.4c-7.9-0.8-14.5-2.2-21.1-7c-5-3.3-7.1-10-8-15.7c0.4,6.8,2.8,15.1,9.1,18.7
					c7.2,4.9,16.7,6,25.1,5.8c6.6-0.5,13.1-1.9,19-5.6c2.9-1.8,11.4-11.8,6.9-13.2C106.1,60.6,109.3,54.6,108.4,51.1L108.4,51.1z
					 M106.7,51C106.4,50.9,106.7,51,106.7,51S106.7,51,106.7,51z M106.8,51.1L106.8,51.1C106.8,51.1,106.8,51.1,106.8,51.1z
					 M103.8,64.5L103.8,64.5C103.8,64.5,103.8,64.5,103.8,64.5z"/>
				<path class="st6" d="M32.5,35.4c-0.8-4.2-5.5-3.1-8.3-2.9c-0.5-2-3.2-4-4.8-4.8c-1.5-0.8-4-1.2-5.6-0.1c0,0-0.1,0-0.1,0
					c-2.9,1.9-7,4.1-10.5,4.1c-0.9,0-2.8-0.1-3,1c-0.4,0.7-0.1,1.7,0.3,2.4c0.9,1.6,2.4,2.8,4,3.6c2.9,3.8,7.4,6.1,11.9,6.9
					c4.8,0.9,9.2-0.3,12.5-4.2C31.2,40.4,33.1,38.3,32.5,35.4L32.5,35.4z"/>
				<path class="st7" d="M32.5,35.4c-0.8-4.2-5.5-3.1-8.3-2.9c-0.5-2-3.2-4-4.8-4.8c-1.5-0.8-4-1.2-5.6-0.1c0,0-0.1,0-0.1,0
					c-2.9,1.9-7,4.1-10.5,4.1c-0.9,0-2.8-0.1-3,1c-0.4,0.7-0.1,1.7,0.3,2.4c0.9,1.6,2.4,2.8,4,3.6c2.9,3.8,7.4,6.1,11.9,6.9
					c4.8,0.9,9.2-0.3,12.5-4.2C31.2,40.4,33.1,38.3,32.5,35.4L32.5,35.4z M27.3,41.7c-0.2,0.1,0,0.3,0.1,0.2c0.1,0,0.1,0,0.2-0.1
					c-1.4,1-2.7,2.2-4.5,2.8c-2.3,0.7-4.8,0.5-7.2,0.1c-2.3-0.4-4.4-1.2-6.4-2.4c-1.4-0.9-2.6-2-3.7-3c0.8,0.4,1.7,0.7,2.5,1
					c3.2,1.2,6.6,1.8,10.1,1.7c3-0.1,6.5-0.8,8.9-2.8c0.1-0.1,0-0.3-0.2-0.2c-4.2,2.5-9.7,2.7-14.4,1.8c-2.3-0.4-4.4-1.2-6.6-2.2
					c-1.2-0.5-2.3-1.2-3.4-2c-0.6-0.5-3-2.8-1.9-3.9c0.8-0.5,2-0.2,2.8-0.1c1.1,0.1,2.2-0.3,3.2-0.6c2.5-0.7,5.5-1.9,7.3-4
					c3.6-1.3,8.1,2,9.9,5.1c0.1,0.2,0.3,0.1,0.4-0.1c2.6,0.7,5.9-1.4,7.4,2.1C33,38.2,29.3,40.5,27.3,41.7L27.3,41.7z"/>
				<g>
					<path class="st8" d="M99.1,67.7c0,14.2-11,25.8-24.6,25.8S49.9,81.9,49.9,67.7s11-25.8,24.6-25.8S99.1,53.4,99.1,67.7z"/>
					<path class="st9" d="M98.6,66.7c0,13.7-10.7,24.9-23.9,24.9S50.8,80.5,50.8,66.7s10.7-24.9,23.9-24.9S98.6,53,98.6,66.7z"/>
					<path class="st10" d="M96.4,66.7c0,12.5-9.7,22.6-21.7,22.6S53,79.2,53,66.7s9.7-22.6,21.7-22.6S96.4,54.2,96.4,66.7z"/>
					<path class="st11" d="M90.4,66.7c0,9-7.1,16.3-15.7,16.3S59,75.8,59,66.7s7-16.3,15.7-16.3S90.4,57.7,90.4,66.7z"/>
					<path class="st10" d="M84.3,66.7c0,5.6-4.3,10.1-9.7,10.1S65,72.3,65,66.7s4.3-10,9.7-10S84.3,61.2,84.3,66.7z"/>
					<path class="st11" d="M79.1,66.7c0,2.5-2,4.6-4.4,4.6s-4.4-2.1-4.4-4.6s2-4.6,4.4-4.6S79.1,64.2,79.1,66.7z"/>
				</g>
				<path class="st12" d="M18.2,39.1c-3.2-0.2-6.3-1-9.4-1.8c-1.5-0.4-2.9-1-4.3-1.7c-0.7-0.4-2.8-1.4-2.8-2.5
					c0-0.1-0.1-0.2-0.2-0.2c-2.3,1.1,2.3,3.9,3,4.3c2.1,1.1,4.5,1.5,6.7,1.9c2.2,0.4,4.7,0.8,6.9,0.2C18.4,39.3,18.4,39.1,18.2,39.1
					L18.2,39.1z"/>
				<path class="st12" d="M20,38.3c-0.8,0-0.7,1.3,0.1,1.3S20.8,38.3,20,38.3z"/>
				<path class="st12" d="M21,30.9c-1.7-2-4.3-3.4-6.8-2.6c-0.1,0-0.1,0.2,0.1,0.2c2.7-0.5,4.5,1.1,6.5,2.6
					C20.9,31.2,21.1,31,21,30.9L21,30.9z"/>
				<path class="st12" d="M24.5,33.6c-0.2,0-0.1,0.2,0,0.2c1.1-0.1,2.2-0.2,3.3-0.1c1.4,0.2,2,1.3,3,2.1c0.2,0.2,0.5,0,0.4-0.3
					C30.5,32.3,26.5,33.2,24.5,33.6z"/>
				<path class="st13" d="M48.1,14.2C44,9.6,37.9,7.9,32,8.7c-0.1,0-0.1,0.1,0,0.1c5.3-0.2,10.7,1.7,14.6,5.5
					c4.9,4.8,5.8,11.8,5.5,18.4c0,0.3,0.3,0.4,0.5,0.1C54.4,26.5,52.3,19,48.1,14.2L48.1,14.2z"/>
				<path class="st13" d="M65.8,41.5c-4-1.7-8.1-2.7-12-4.8c-0.1-0.1-0.2,0.1-0.1,0.2c3.4,2.9,7.9,3.7,12,4.9
					C65.8,41.8,65.9,41.5,65.8,41.5L65.8,41.5z"/>
				<path class="st13" d="M106.5,31.5c-6.8,4.3-12.8,10-20.9,11.5c-0.1,0-0.1,0.3,0,0.2c7.8-0.8,15.8-5.6,21.2-11.4
					C107,31.6,106.7,31.3,106.5,31.5L106.5,31.5z"/>
				<path class="st13" d="M115.6,29.7c-1.6,0.7-2.8,2.2-4,3.5c-2,2-4.4,3.4-6.7,4.8c-0.1,0.1,0,0.3,0.1,0.2c4-2.3,8-4.2,10.9-8
					C116.1,30,115.9,29.6,115.6,29.7L115.6,29.7z"/>
				<path class="st13" d="M118.3,36.5c-0.7,0.5-1.2,1.3-1.9,1.9c-0.7,0.8-1.4,1.5-2.2,2.1c0,0,0,0.1,0.1,0.1
					c1.6-0.8,3.6-2.1,4.4-3.9C118.8,36.6,118.5,36.3,118.3,36.5z"/>
				<path class="st13" d="M31.2,6.9c-0.3-0.8-0.4-1.6-0.3-2.4c0-0.2-0.2-0.2-0.2,0c-0.2,0.9-0.4,1.9,0.2,2.6
					C31.1,7.2,31.3,7.1,31.2,6.9L31.2,6.9z"/>
				<path class="st3" d="M39.1,29.3c-0.5-0.5-1.1-0.1-1.5,0.2c-0.4,0.2-0.1,0.9,0.3,0.8c0.5-0.1,0.9,0,1.3-0.4
					C39.4,29.7,39.3,29.5,39.1,29.3L39.1,29.3z"/>
			</g>
		</g>
	</g>
</g>
</svg>
